# xmcd
#
# Track frame offsets: 
#        150
#        26555
#        48332
#        72947
#        93302
#        115542
#        138590
#        159487
#        188627
#        209380
#
# Disc length: 3032 seconds
#
# Revision: 2
# Processed by: cddbd v1.5.1PL2 Copyright (c) Steve Scherf et al.
# Submitted via: ExactAudioCopy v0.95b3
#
DISCID=820bd60a
DTITLE=Tamiya Lynn - Tamiya Lynn
DYEAR=1992
DGENRE=Soul
TTITLE0=Hip New Moon
TTITLE1=Somewhere Back Of The Moon
TTITLE2=Black Lace And Flowers
TTITLE3=To Be Your Lady
TTITLE4=After All
TTITLE5=Silk
TTITLE6=Congo Man
TTITLE7=Jazz, A Rainy Day, And You
TTITLE8=Ship Of Love
TTITLE9=Love Is
EXTD=
EXTT0=
EXTT1=
EXTT2=
EXTT3=
EXTT4=
EXTT5=
EXTT6=
EXTT7=
EXTT8=
EXTT9=
PLAYORDER=
